<?xml version="1.0" standalone="no"?><!DOCTYPE svg PUBLIC "-//W3C//DTD SVG 1.1//EN" "http://www.w3.org/Graphics/SVG/1.1/DTD/svg11.dtd" ><svg xmlns="http://www.w3.org/2000/svg"><metadata></metadata><defs><font id="BigruixianLightGB4.0" horiz-adv-x="1024"><font-face font-family="BigruixianLightGB4.0" font-weight="400" font-stretch="normal" units-per-em="1024" panose-1="2 1 6 4 0 0 0 0 0 0" ascent="880" descent="-204" x-height="0" bbox="44 -59 988 796" underline-thickness="20" underline-position="-128" unicode-range="U+4e0b-91cd" /><missing-glyph horiz-adv-x="0" d="M102 194 l40 0 l12 508 l-64 0 l12 -508 l0 0 l0 0 ZM122 -1 q46 0 44 47 q-1 48 -44 48 q-46 0 -44 -48 q1 -47 44 -47 l0 0 l0 0 Z" /><glyph glyph-name="" unicode="&#x672c;" d="M536 636 l164 0 l188 -647 l48 0 l-184 647 l204 0 l0 36 l-420 0 l0 116 l-48 0 l0 -116 l-420 0 l0 -36 l196 0 l-180 -647 l48 0 l184 647 l172 0 l0 -496 l-240 0 l0 -36 l240 0 l0 -155 l48 0 l0 155 l220 0 l0 36 l-220 0 l0 496 l0 0 l0 0 Z" /><glyph glyph-name="" unicode="&#x53d8;" d="M812 630 l-48 0 l116 -248 l48 0 l-116 248 l0 0 l0 0 ZM260 630 l-52 0 l-120 -248 l48 0 l124 248 l0 0 l0 0 ZM526 790 l-52 0 l28 -52 l-422 0 l0 -36 l260 0 l0 -312 l48 0 l0 312 l252 0 l0 -312 l48 0 l0 312 l260 0 l0 36 l-392 0 l-30 52 l0 0 l0 0 ZM558 112 l334 124 l0 102 l-760 0 l0 -36 l712 0 l0 -40 l-336 -130 l-350 126 l0 -42 l296 -106 l-362 -117 l0 -40 l420 133 l412 -139 l0 44 l-366 121 l0 0 l0 0 Z" /><glyph glyph-name="" unicode="&#x518c;" d="M184 422 l0 288 l222 0 l0 -288 l-222 0 l0 0 l0 0 ZM606 422 l0 288 l238 0 l0 -288 l-238 0 l0 0 l0 0 ZM68 422 l0 -36 l68 0 l0 -172 l-36 -267 l48 0 l36 271 l0 168 l222 0 l0 -399 l-142 0 l20 -36 l170 0 l0 435 l104 0 l0 -180 l-48 -259 l48 0 l48 257 l0 182 l238 0 l0 -399 l-120 0 l20 -36 l148 0 l0 435 l64 0 l0 36 l-64 0 l0 324 l-334 0 l0 -324 l-104 0 l0 324 l-318 0 l0 -324 l-68 0 l0 0 l0 0 Z" /><glyph glyph-name="" unicode="&#x67e5;" d="M88 -9 l0 -36 l852 0 l0 36 l-852 0 l0 0 l0 0 ZM212 302 l0 124 l596 0 l0 -124 l-596 0 l0 0 l0 0 ZM808 266 l0 -128 l-596 0 l0 128 l596 0 l0 0 l0 0 ZM536 682 l92 0 l0 -14 l320 -242 l0 52 l-272 204 l276 0 l0 36 l-416 0 l0 72 l-48 0 l0 -72 l-424 0 l0 -36 l280 0 l-280 -208 l0 -48 l332 246 l0 10 l92 0 l0 -190 l48 0 l0 190 l0 0 l0 0 ZM856 102 l0 360 l-692 0 l0 -360 l692 0 l0 0 l0 0 Z" /><glyph glyph-name="" unicode="&#x6210;" d="M826 722 l-166 0 l-4 70 l-48 0 l4 -70 l-488 0 l0 -520 l-36 -255 l48 0 l36 235 l0 248 l240 0 l0 -388 l-164 0 l20 -36 l192 0 l0 460 l-288 0 l0 220 l442 0 l24 -504 l-164 -235 l46 0 l148 201 l252 -201 l32 235 l-40 30 l-28 -182 l-190 154 l216 354 l-52 0 l-176 -292 l-20 440 l164 0 l0 36 l0 0 l0 0 ZM868 792 l-48 0 l80 -142 l50 0 l-82 142 l0 0 l0 0 Z" /><glyph glyph-name="" unicode="&#x521b;" d="M748 742 l-48 0 l0 -628 l48 0 l0 628 l0 0 l0 0 ZM72 598 l280 136 l248 -144 l0 48 l-248 144 l-280 -140 l0 -44 l0 0 l0 0 ZM720 -9 l20 -36 l200 0 l0 835 l-48 0 l0 -799 l-172 0 l0 0 l0 0 ZM584 136 l-44 28 l-8 -175 l-376 0 l0 485 l360 0 l-6 -236 l-214 0 l20 -36 l240 0 l8 308 l-456 0 l0 -557 l468 0 l8 183 l0 0 l0 0 Z" /><glyph glyph-name="" unicode="&#x6b64;" d="M692 490 l0 300 l-48 0 l0 -829 l308 0 l12 227 l-44 28 l-12 -219 l-216 0 l0 443 l260 204 l0 50 l-260 -204 l0 0 l0 0 ZM384 552 l0 238 l-48 0 l0 -710 l-176 -62 l0 666 l-48 0 l0 -682 l-54 -19 l0 -42 l520 179 l0 44 l-194 -68 l0 420 l224 0 l0 36 l-224 0 l0 0 l0 0 Z" /><glyph glyph-name="" unicode="&#x767b;" d="M280 138 l-52 0 l84 -139 l52 0 l-84 139 l0 0 l0 0 ZM324 558 l0 -36 l380 0 l0 36 l-380 0 l0 0 l0 0 ZM100 -9 l0 -36 l820 0 l0 36 l-228 0 l100 147 l-50 0 l-100 -147 l-542 0 l0 0 l0 0 ZM808 770 l-52 0 l-80 -98 l-116 124 l0 -58 l380 -428 l0 64 l-128 146 l140 158 l-56 0 l-112 -126 l-80 88 l104 130 l0 0 l0 0 ZM232 530 l-148 -164 l0 -56 l414 444 l-392 0 l0 -36 l302 0 l-144 -154 l-96 98 l-56 0 l120 -132 l0 0 l0 0 ZM252 214 l0 168 l516 0 l0 -168 l-516 0 l0 0 l0 0 ZM816 178 l0 240 l-612 0 l0 -240 l612 0 l0 0 l0 0 Z" /><glyph glyph-name="" unicode="&#x70b9;" d="M212 134 l-48 0 l-76 -187 l48 0 l76 187 l0 0 l0 0 ZM616 134 l-48 0 l84 -187 l48 0 l-84 187 l0 0 l0 0 ZM852 134 l-48 0 l84 -187 l48 0 l-84 187 l0 0 l0 0 ZM376 134 l-48 0 l76 -187 l48 0 l-76 187 l0 0 l0 0 ZM860 226 l-688 0 l0 260 l688 0 l0 -260 l0 0 l0 0 ZM534 718 l0 72 l-48 0 l0 -268 l-362 0 l0 -332 l784 0 l0 332 l-374 0 l0 160 l420 0 l0 36 l-420 0 l0 0 l0 0 Z" /><glyph glyph-name="" unicode="&#x53d1;" d="M652 780 l0 -40 l264 -48 l0 40 l-264 48 l0 0 l0 0 ZM624 170 l318 200 l0 32 l-666 0 l70 176 l600 0 l0 36 l-584 0 l64 176 l-48 0 l-66 -176 l-182 0 l44 136 l-48 0 l-56 -172 l226 0 l-236 -576 l46 0 l156 364 l594 0 l-276 -170 l-266 148 l0 -46 l226 -128 l-310 -179 l0 -46 l356 201 l356 -201 l0 48 l-318 177 l0 0 l0 0 Z" /><glyph glyph-name="" unicode="&#x6539;" d="M68 2 l0 -47 l442 193 l0 46 l-358 -154 l0 370 l280 0 l0 344 l-346 0 l0 -36 l298 0 l0 -272 l-280 0 l0 -424 l-36 -20 l0 0 l0 0 ZM614 488 l-50 0 l134 -228 l-208 -313 l52 0 l184 269 l168 -269 l52 0 l-192 311 l158 250 l0 172 l48 0 l0 36 l-368 0 l12 62 l-46 0 l-86 -408 l44 0 l68 310 l280 0 l0 -164 l-136 -218 l-114 190 l0 0 l0 0 Z" /><glyph glyph-name="" unicode="&#x4e2a;" d="M534 610 l-48 0 l0 -663 l48 0 l0 663 l0 0 l0 0 ZM72 482 l440 252 l440 -262 l0 52 l-440 262 l-440 -256 l0 -48 l0 0 l0 0 Z" /><glyph glyph-name="" unicode="&#x529f;" d="M58 32 l0 -41 l320 107 l0 40 l-148 -48 l0 588 l148 0 l0 36 l-320 0 l0 -36 l124 0 l0 -604 l-124 -42 l0 0 l0 0 ZM672 790 l-48 0 l-8 -116 l-216 0 l0 -36 l208 0 l-228 -691 l50 0 l228 691 l238 0 l-8 -647 l-212 0 l20 -36 l240 0 l8 719 l-280 0 l8 116 l0 0 l0 0 Z" /><glyph glyph-name="" unicode="&#x7ba1;" d="M324 706 l184 0 l0 36 l-294 0 l26 48 l-52 0 l-124 -228 l50 0 l80 144 l74 0 l100 -116 l58 0 l-102 116 l0 0 l0 0 ZM192 270 l0 108 l638 0 l0 -108 l-638 0 l0 0 l0 0 ZM508 602 l-48 0 l36 -56 l-404 0 l0 -132 l48 0 l0 96 l748 0 l0 -100 l48 0 l0 136 l-384 0 l-30 48 l30 0 l58 112 l74 0 l104 -116 l56 0 l-104 116 l208 0 l0 36 l-320 0 l24 48 l-52 0 l-92 -188 l0 0 l0 0 ZM852 -9 l-660 0 l0 111 l660 0 l0 -111 l0 0 l0 0 ZM900 -45 l0 183 l-708 0 l0 96 l686 0 l0 180 l-734 0 l0 -459 l756 0 l0 0 l0 0 Z" /><glyph glyph-name="" unicode="&#x53f7;" d="M234 -9 l20 -36 l610 0 l36 243 l-696 0 l44 136 l712 0 l0 36 l-896 0 l0 -36 l136 0 l-56 -172 l704 0 l-28 -171 l-586 0 l0 0 l0 0 ZM850 718 l0 -168 l-680 0 l0 168 l680 0 l0 0 l0 0 ZM122 754 l0 -240 l776 0 l0 240 l-776 0 l0 0 l0 0 Z" /><glyph glyph-name="" unicode="&#x540e;" d="M76 -37 l48 0 l46 295 l0 244 l786 0 l0 36 l-786 0 l0 164 l750 28 l0 38 l-798 -30 l0 -480 l-46 -295 l0 0 l0 0 ZM308 -1 l0 299 l568 0 l0 -299 l-568 0 l0 0 l0 0 ZM260 334 l0 -371 l664 0 l0 371 l-664 0 l0 0 l0 0 Z" /><glyph glyph-name="" unicode="&#x6280;" d="M480 410 l-56 0 l202 -196 l-288 -267 l58 0 l264 241 l250 -241 l60 0 l-282 271 l264 248 l0 20 l-276 0 l0 192 l276 0 l0 36 l-276 0 l0 76 l-48 0 l0 -76 l-262 0 l0 -36 l262 0 l0 -192 l-266 0 l0 -36 l514 0 l-220 -206 l-176 166 l0 0 l0 0 ZM62 310 l0 -44 l108 40 l0 -323 l-100 0 l20 -36 l128 0 l0 375 l116 44 l0 40 l-116 -44 l0 228 l116 0 l0 36 l-116 0 l0 164 l-48 0 l0 -164 l-108 0 l0 -36 l108 0 l0 -244 l-108 -36 l0 0 l0 0 Z" /><glyph glyph-name="" unicode="&#x4ef6;" d="M256 790 l-52 0 l-152 -408 l52 0 l152 408 l0 0 l0 0 ZM208 506 l-48 0 l0 -559 l48 0 l0 559 l0 0 l0 0 ZM642 790 l-48 0 l0 -172 l-212 0 l48 136 l-48 0 l-140 -376 l52 0 l76 204 l224 0 l0 -356 l-338 0 l0 -36 l338 0 l0 -243 l48 0 l0 243 l320 0 l0 36 l-320 0 l0 356 l264 0 l0 36 l-264 0 l0 172 l0 0 l0 0 Z" /><glyph glyph-name="" unicode="&#x5efa;" d="M870 570 l0 -112 l-210 0 l0 112 l210 0 l0 0 l0 0 ZM660 606 l0 104 l210 0 l0 -104 l-210 0 l0 0 l0 0 ZM318 -7 l-106 175 l130 304 l-208 0 l196 288 l-270 0 l0 -36 l192 0 l-194 -288 l218 0 l-92 -216 l-60 108 l-48 0 l84 -160 l-100 -215 l46 0 l82 171 l100 -167 l656 0 l20 36 l-646 0 l0 0 l0 0 ZM330 606 l0 -36 l282 0 l0 -112 l-234 0 l0 -36 l234 0 l0 -128 l-258 0 l0 -36 l258 0 l0 -116 l-282 0 l0 -36 l282 0 l0 -88 l48 0 l0 88 l280 0 l0 36 l-280 0 l0 116 l264 0 l0 36 l-264 0 l0 128 l258 0 l0 148 l48 0 l0 36 l-48 0 l0 140 l-258 0 l0 44 l-48 0 l0 -44 l-234 0 l0 -36 l234 0 l0 -104 l-282 0 l0 0 l0 0 Z" /><glyph glyph-name="" unicode="&#x63a5;" d="M448 666 l-48 0 l64 -148 l48 0 l-64 148 l0 0 l0 0 ZM644 790 l-44 0 l20 -60 l-276 0 l0 -36 l600 0 l0 36 l-278 0 l-22 60 l0 0 l0 0 ZM320 490 l0 -36 l644 0 l0 36 l-128 0 l62 176 l-48 0 l-64 -176 l-466 0 l0 0 l0 0 ZM52 312 l0 -42 l96 36 l0 -313 l-88 0 l20 -36 l116 0 l0 365 l112 42 l0 40 l-112 -40 l0 228 l112 0 l0 36 l-112 0 l0 164 l-48 0 l0 -164 l-96 0 l0 -36 l96 0 l0 -244 l-96 -36 l0 0 l0 0 ZM848 166 l-204 -72 l-212 74 l30 118 l386 0 l0 -120 l0 0 l0 0 ZM958 -53 l0 42 l-256 85 l194 68 l0 144 l72 0 l0 36 l-498 0 l20 92 l-44 0 l-22 -92 l-106 0 l0 -36 l96 0 l-36 -136 l206 -76 l-270 -87 l0 -40 l334 107 l310 -107 l0 0 l0 0 Z" /><glyph glyph-name="" unicode="&#x754c;" d="M790 198 l-48 0 l0 -251 l48 0 l0 251 l0 0 l0 0 ZM118 -53 l56 0 l96 127 l12 128 l-48 0 l-8 -112 l-108 -143 l0 0 l0 0 ZM538 558 l0 168 l314 0 l0 -168 l-314 0 l0 0 l0 0 ZM172 558 l0 168 l318 0 l0 -168 l-318 0 l0 0 l0 0 ZM490 522 l0 -176 l-318 0 l0 176 l318 0 l0 0 l0 0 ZM852 522 l0 -176 l-314 0 l0 176 l314 0 l0 0 l0 0 ZM330 310 l360 0 l0 -44 l272 -132 l0 44 l-272 132 l210 0 l0 452 l-776 0 l0 -452 l206 0 l-260 -128 l0 -44 l260 128 l0 44 l0 0 l0 0 Z" /><glyph glyph-name="" unicode="&#x5c31;" d="M882 778 l-50 0 l60 -160 l50 0 l-60 160 l0 0 l0 0 ZM440 254 l-50 0 l64 -212 l54 0 l-68 212 l0 0 l0 0 ZM190 254 l-52 0 l-74 -226 l50 0 l76 226 l0 0 l0 0 ZM50 726 l0 -36 l484 0 l0 36 l-224 0 l-28 64 l-48 0 l26 -64 l-210 0 l0 0 l0 0 ZM442 362 l-312 0 l0 196 l312 0 l0 -196 l0 0 l0 0 ZM966 176 l-44 32 l-8 -213 l-98 0 l0 519 l146 0 l0 36 l-254 0 l0 240 l-48 0 l0 -240 l-138 0 l0 -36 l134 0 l-124 -567 l48 0 l124 567 l64 0 l0 -555 l192 0 l6 217 l0 0 l0 0 ZM136 -17 l18 -36 l158 0 l0 379 l178 0 l0 268 l-408 0 l0 -268 l182 0 l0 -343 l-128 0 l0 0 l0 0 Z" /><glyph glyph-name="" unicode="&#x79d1;" d="M584 724 l-56 0 l232 -244 l56 0 l-232 244 l0 0 l0 0 ZM512 520 l-56 0 l244 -240 l56 0 l-244 240 l0 0 l0 0 ZM360 124 l0 -36 l492 44 l0 -183 l48 0 l0 191 l88 8 l0 36 l-88 -8 l0 614 l-48 0 l0 -622 l-492 -44 l0 0 l0 0 ZM268 -51 l0 447 l80 -180 l52 0 l-84 180 l-48 0 l0 88 l152 0 l0 36 l-152 0 l0 196 l136 16 l0 36 l-336 -36 l0 -36 l152 16 l0 -192 l-154 0 l0 -36 l142 0 l-158 -392 l46 0 l124 308 l0 -451 l48 0 l0 0 l0 0 Z" /><glyph glyph-name="" unicode="&#x6765;" d="M916 572 l0 52 l-288 -184 l0 -48 l288 180 l0 0 l0 0 ZM648 318 l304 0 l0 36 l-416 0 l0 334 l392 0 l0 36 l-392 0 l0 64 l-48 0 l0 -64 l-392 0 l0 -36 l392 0 l0 -334 l-416 0 l0 -36 l308 0 l-308 -319 l0 -56 l328 331 l0 44 l88 0 l0 -371 l48 0 l0 371 l92 0 l0 -40 l298 -335 l0 69 l-278 306 l0 0 l0 0 ZM124 578 l276 -180 l0 52 l-276 176 l0 -48 l0 0 l0 0 Z" /><glyph glyph-name="" unicode="&#x7406;" d="M682 730 l214 0 l0 -156 l-214 0 l0 156 l0 0 l0 0 ZM634 574 l-214 0 l0 156 l214 0 l0 -156 l0 0 l0 0 ZM682 538 l214 0 l0 -160 l-214 0 l0 160 l0 0 l0 0 ZM634 378 l-214 0 l0 160 l214 0 l0 -160 l0 0 l0 0 ZM50 26 l0 -41 l280 91 l0 40 l-120 -38 l0 304 l112 0 l0 36 l-112 0 l0 288 l122 0 l0 36 l-282 0 l0 -36 l112 0 l0 -288 l-108 0 l0 -36 l108 0 l0 -320 l-112 -36 l0 0 l0 0 ZM326 -1 l0 -36 l652 0 l0 36 l-296 0 l0 163 l264 0 l0 36 l-264 0 l0 144 l262 0 l0 424 l-572 0 l0 -424 l262 0 l0 -144 l-256 0 l0 -36 l256 0 l0 -163 l-308 0 l0 0 l0 0 Z" /><glyph glyph-name="" unicode="&#x6599;" d="M430 748 l-50 0 l-88 -252 l44 0 l94 252 l0 0 l0 0 ZM116 748 l-48 0 l84 -252 l48 0 l-84 252 l0 0 l0 0 ZM532 776 l0 -54 l244 -212 l0 58 l-244 208 l0 0 l0 0 ZM460 558 l0 -56 l244 -212 l0 60 l-244 208 l0 0 l0 0 ZM334 376 l-46 0 l70 -258 l46 0 l-70 258 l0 0 l0 0 ZM440 172 l0 -38 l380 52 l0 -239 l48 0 l0 247 l96 14 l0 38 l-96 -14 l0 556 l-48 0 l0 -564 l-380 -52 l0 0 l0 0 ZM100 -17 l120 431 l0 -467 l48 0 l0 475 l144 0 l0 36 l-144 0 l0 330 l-48 0 l0 -330 l-164 0 l0 -36 l124 0 l-124 -439 l44 0 l0 0 l0 0 Z" /><glyph glyph-name="" unicode="&#x5f55;" d="M104 364 l0 -46 l284 -148 l-308 -171 l0 -44 l412 227 l0 -195 l-136 0 l20 -36 l164 0 l0 269 l396 -267 l0 49 l-252 170 l240 154 l0 48 l-276 -176 l-108 72 l0 140 l408 0 l0 36 l-48 0 l0 308 l-768 0 l0 -36 l720 0 l0 -120 l-700 0 l0 -36 l700 0 l0 -116 l-746 0 l0 -36 l386 0 l0 -180 l-104 -60 l0 48 l-284 146 l0 0 l0 0 Z" /><glyph glyph-name="" unicode="&#x7801;" d="M382 196 l0 -36 l472 0 l0 36 l-472 0 l0 0 l0 0 ZM190 20 l0 444 l108 0 l0 -444 l-108 0 l0 0 l0 0 ZM670 -11 l20 -36 l244 0 l20 423 l-96 0 l44 372 l-476 0 l0 -36 l426 0 l-40 -336 l-320 0 l30 280 l-44 0 l-36 -316 l464 0 l-16 -351 l-220 0 l0 0 l0 0 ZM346 500 l-184 0 l60 216 l160 0 l0 36 l-300 0 l0 -36 l96 0 l-124 -452 l44 0 l44 148 l0 -427 l204 0 l0 515 l0 0 l0 0 Z" /><glyph glyph-name="" unicode="&#x4eec;" d="M402 790 l-54 0 l112 -164 l54 0 l-112 164 l0 0 l0 0 ZM270 790 l-48 0 l-162 -396 l50 0 l160 396 l0 0 l0 0 ZM212 510 l-48 0 l0 -563 l48 0 l0 563 l0 0 l0 0 ZM380 606 l-48 0 l0 -659 l48 0 l0 659 l0 0 l0 0 ZM548 742 l0 -36 l344 0 l0 -719 l-240 0 l20 -36 l268 0 l0 791 l-392 0 l0 0 l0 0 Z" /><glyph glyph-name="" unicode="&#x5bc6;" d="M500 670 l-48 0 l76 -144 l48 0 l-76 144 l0 0 l0 0 ZM258 578 l-48 0 l-106 -304 l48 0 l106 304 l0 0 l0 0 ZM852 538 l-44 0 l72 -252 l48 0 l-76 252 l0 0 l0 0 ZM520 790 l-50 0 l24 -54 l-398 0 l0 -164 l48 0 l0 128 l728 0 l0 -128 l48 0 l0 164 l-374 0 l-26 54 l0 0 l0 0 ZM544 174 l-48 0 l0 -183 l-304 0 l0 155 l-48 0 l0 -191 l748 0 l0 191 l-48 0 l0 -155 l-300 0 l0 183 l0 0 l0 0 ZM820 558 l0 48 l-472 -276 l0 272 l-48 0 l0 -296 l-228 -132 l0 -44 l228 128 l0 -36 l484 0 l0 184 l-48 30 l0 -178 l-388 0 l0 26 l472 274 l0 0 l0 0 Z" /><glyph glyph-name="" unicode="&#x60a8;" d="M448 534 l-52 0 l-100 -228 l52 0 l100 228 l0 0 l0 0 ZM814 534 l-48 0 l106 -224 l48 0 l-106 224 l0 0 l0 0 ZM218 794 l-52 0 l-122 -312 l52 0 l122 312 l0 0 l0 0 ZM180 556 l-48 0 l0 -294 l48 0 l0 294 l0 0 l0 0 ZM426 302 l20 -36 l196 0 l0 386 l-48 0 l0 -350 l-168 0 l0 0 l0 0 ZM952 736 l-540 0 l20 58 l-52 0 l-92 -244 l52 0 l60 150 l492 0 l-48 -140 l52 0 l56 176 l0 0 l0 0 ZM520 218 l-52 0 l92 -164 l52 0 l-92 164 l0 0 l0 0 ZM196 206 l-48 0 l-70 -237 l48 0 l70 237 l0 0 l0 0 ZM880 206 l-48 0 l84 -237 l48 0 l-84 237 l0 0 l0 0 ZM778 160 l-48 40 l0 -211 l-386 0 l0 227 l-48 0 l0 -263 l482 0 l0 207 l0 0 l0 0 Z" /><glyph glyph-name="" unicode="&#x8bf7;" d="M252 572 l0 60 l-168 156 l0 -56 l168 -160 l0 0 l0 0 ZM102 2 l0 -51 l200 155 l0 52 l-128 -96 l0 428 l-116 0 l0 -40 l68 0 l0 -426 l-24 -22 l0 0 l0 0 ZM384 234 l0 84 l508 0 l0 -84 l-508 0 l0 0 l0 0 ZM384 106 l0 92 l508 0 l0 -92 l-508 0 l0 0 l0 0 ZM348 618 l0 -36 l260 0 l0 -100 l-316 0 l0 -36 l684 0 l0 36 l-320 0 l0 100 l276 0 l0 36 l-276 0 l0 88 l300 0 l0 36 l-300 0 l0 48 l-48 0 l0 -48 l-284 0 l0 -36 l284 0 l0 -88 l-260 0 l0 0 l0 0 ZM892 70 l0 -87 l-208 0 l20 -36 l236 0 l0 407 l-604 0 l0 -407 l48 0 l0 123 l508 0 l0 0 l0 0 Z" /><glyph glyph-name="" unicode="&#x4eba;" d="M576 430 l-56 0 l390 -483 l56 0 l-390 483 l0 0 l0 0 ZM536 468 l0 322 l-48 0 l0 -308 l-426 -535 l56 0 l418 521 l0 0 l0 0 Z" /><glyph glyph-name="" unicode="&#x4e16;" d="M476 274 l0 280 l330 0 l0 -280 l-330 0 l0 0 l0 0 ZM44 590 l0 -36 l80 0 l0 -575 l820 0 l0 35 l-772 0 l0 540 l256 0 l0 -316 l426 0 l0 316 l122 0 l0 36 l-122 0 l0 192 l-48 0 l0 -192 l-330 0 l0 192 l-48 0 l0 -192 l-256 0 l0 164 l-48 0 l0 -164 l-80 0 l0 0 l0 0 Z" /><glyph glyph-name="" unicode="&#x662f;" d="M166 624 l0 104 l688 0 l0 -104 l-688 0 l0 0 l0 0 ZM854 588 l0 -112 l-688 0 l0 112 l688 0 l0 0 l0 0 ZM192 122 l0 110 l-48 0 l0 -124 l-78 -155 l54 0 l66 127 l288 -123 l464 0 l20 36 l-422 0 l0 159 l372 0 l0 36 l-372 0 l0 104 l426 0 l0 36 l-900 0 l0 -36 l426 0 l0 -297 l-296 127 l0 0 l0 0 ZM118 440 l784 0 l0 324 l-784 0 l0 -324 l0 0 l0 0 Z" /><glyph glyph-name="" unicode="&#x6536;" d="M348 786 l-48 0 l0 -586 l-148 -58 l0 600 l-48 0 l0 -616 l-40 -18 l0 -44 l236 96 l0 -213 l48 0 l0 839 l0 0 l0 0 ZM560 456 l-52 0 l170 -222 l-234 -293 l54 0 l212 259 l204 -253 l60 0 l-236 287 l184 260 l0 196 l48 0 l0 36 l-420 0 l12 56 l-48 0 l-88 -412 l48 0 l68 320 l332 0 l0 -182 l-166 -238 l-148 186 l0 0 l0 0 Z" /><glyph glyph-name="" unicode="&#x9001;" d="M434 790 l-52 0 l78 -122 l54 0 l-80 122 l0 0 l0 0 ZM152 788 l-50 0 l116 -192 l54 0 l-120 192 l0 0 l0 0 ZM852 44 l60 0 l-242 276 l-52 0 l234 -276 l0 0 l0 0 ZM64 480 l0 -36 l108 0 l0 -324 l-104 -167 l50 0 l82 125 l100 -121 l652 0 l20 36 l-644 0 l-108 127 l0 360 l-156 0 l0 0 l0 0 ZM848 790 l-54 0 l-90 -146 l-394 0 l0 -36 l274 0 l0 -228 l-288 0 l0 -36 l272 0 l-260 -300 l56 0 l268 300 l308 0 l0 36 l-308 0 l0 228 l288 0 l0 36 l-164 0 l92 146 l0 0 l0 0 Z" /><glyph glyph-name="" unicode="&#x53f0;" d="M814 748 l-50 0 l100 -176 l-700 0 l128 216 l-52 0 l-156 -252 l854 0 l-124 212 l0 0 l0 0 ZM860 -7 l-688 0 l0 331 l688 0 l0 -331 l0 0 l0 0 ZM908 -43 l0 403 l-784 0 l0 -403 l784 0 l0 0 l0 0 Z" /><glyph glyph-name="" unicode="&#x672a;" d="M532 -53 l0 431 l24 0 l384 -403 l0 63 l-330 340 l350 0 l0 36 l-428 0 l0 252 l380 0 l0 36 l-380 0 l0 88 l-48 0 l0 -88 l-366 0 l0 -36 l366 0 l0 -252 l-416 0 l0 -36 l328 0 l-312 -352 l0 -57 l372 409 l28 0 l0 -431 l48 0 l0 0 l0 0 Z" /><glyph glyph-name="" unicode="&#x6211;" d="M320 716 l176 18 l0 38 l-404 -40 l0 -36 l180 16 l0 -172 l-196 0 l0 -36 l196 0 l0 -216 l-202 -50 l0 -40 l202 50 l0 -255 l-168 0 l20 -36 l196 0 l0 301 l192 50 l0 36 l-192 -46 l0 206 l344 0 l24 -304 l-220 -192 l0 -53 l240 205 l234 -217 l10 209 l-46 34 l-10 -142 l-154 146 l202 182 l0 56 l-212 -188 l-20 264 l236 0 l0 36 l-240 0 l-14 250 l-46 0 l12 -250 l-340 0 l0 176 l0 0 l0 0 ZM904 660 l52 0 l-108 128 l-52 0 l108 -128 l0 0 l0 0 Z" /><glyph glyph-name="" unicode="&#x4e0b;" d="M596 502 l0 -56 l316 -228 l0 56 l-316 228 l0 0 l0 0 ZM536 710 l424 0 l0 36 l-892 0 l0 -36 l420 0 l0 -763 l48 0 l0 763 l0 0 l0 0 Z" /><glyph glyph-name="" unicode="&#x7bb1;" d="M368 362 l-48 0 l110 -296 l50 0 l-112 296 l0 0 l0 0 ZM354 696 l188 0 l0 36 l-312 0 l28 52 l-50 0 l-130 -240 l48 0 l88 152 l88 0 l118 -144 l52 0 l-118 144 l0 0 l0 0 ZM756 696 l192 0 l0 36 l-296 0 l28 52 l-52 0 l-130 -240 l50 0 l86 152 l70 0 l122 -144 l54 0 l-124 144 l0 0 l0 0 ZM568 346 l0 120 l320 0 l0 -120 l-320 0 l0 0 l0 0 ZM568 174 l0 136 l320 0 l0 -136 l-320 0 l0 0 l0 0 ZM888 138 l0 -143 l-320 0 l0 143 l320 0 l0 0 l0 0 ZM62 394 l148 0 l-150 -415 l48 0 l148 413 l0 -433 l48 0 l0 435 l192 0 l0 36 l-192 0 l0 120 l-48 0 l0 -120 l-194 0 l0 -36 l0 0 l0 0 ZM936 -41 l0 543 l-416 0 l0 -543 l416 0 l0 0 l0 0 Z" /><glyph glyph-name="" unicode="&#x5df2;" d="M932 204 l-40 30 l-12 -241 l-700 0 l0 371 l716 0 l0 384 l-756 0 l0 -36 l708 0 l0 -312 l-668 0 l0 120 l-48 0 l0 -563 l788 0 l12 247 l0 0 l0 0 Z" /><glyph glyph-name="" unicode="&#x90ae;" d="M738 30 l36 -35 l168 0 l0 411 l-48 0 l0 -376 l-156 0 l0 0 l0 0 ZM136 346 l0 276 l168 0 l0 -276 l-168 0 l0 0 l0 0 ZM352 346 l0 276 l176 0 l0 -276 l-176 0 l0 0 l0 0 ZM304 310 l0 -315 l-168 0 l0 315 l168 0 l0 0 l0 0 ZM528 310 l0 -315 l-176 0 l0 315 l176 0 l0 0 l0 0 ZM846 406 l120 336 l-312 0 l0 -795 l48 0 l0 759 l204 0 l-108 -300 l48 0 l0 0 l0 0 ZM88 -41 l488 0 l0 699 l-224 0 l0 132 l-48 0 l0 -132 l-216 0 l0 -699 l0 0 l0 0 Z" /><glyph glyph-name="" unicode="&#x6709;" d="M228 358 l0 156 l636 0 l0 -156 l-636 0 l0 0 l0 0 ZM228 166 l0 156 l636 0 l0 -156 l-636 0 l0 0 l0 0 ZM864 130 l0 -141 l-208 0 l24 -36 l232 0 l0 597 l-688 0 l124 136 l608 0 l0 36 l-590 0 l32 68 l-46 0 l-36 -68 l-248 0 l0 -36 l224 0 l-224 -248 l0 -56 l112 116 l0 -364 l-72 -187 l48 0 l72 183 l636 0 l0 0 l0 0 Z" /><glyph glyph-name="" unicode="&#x4e91;" d="M154 746 l0 -36 l744 0 l0 36 l-744 0 l0 0 l0 0 ZM750 282 l-54 0 l160 -252 l-666 0 l224 372 l552 0 l0 36 l-880 0 l0 -36 l276 0 l-250 -407 l822 0 l-184 287 l0 0 l0 0 Z" /><glyph glyph-name="" unicode="&#x5e10;" d="M916 756 l-54 0 l-216 -294 l54 0 l216 294 l0 0 l0 0 ZM600 386 l110 0 l204 -419 l50 0 l-204 419 l206 0 l0 36 l-366 0 l0 364 l-48 0 l0 -364 l-88 0 l0 -36 l88 0 l0 -374 l-40 -21 l0 -48 l264 135 l0 48 l-176 -92 l0 352 l0 0 l0 0 ZM272 786 l-48 0 l0 -164 l-148 0 l0 -524 l48 0 l0 488 l100 0 l0 -639 l48 0 l0 639 l112 0 l0 -452 l-86 0 l20 -36 l114 0 l0 524 l-160 0 l0 164 l0 0 l0 0 Z" /><glyph glyph-name="" unicode="&#x8fd9;" d="M144 784 l-56 0 l144 -200 l56 0 l-144 200 l0 0 l0 0 ZM292 -43 l668 0 l20 36 l-660 0 l-108 135 l0 380 l-156 0 l0 -36 l108 0 l0 -344 l-108 -171 l52 0 l82 125 l102 -125 l0 0 l0 0 ZM884 684 l64 0 l0 36 l-290 0 l-32 76 l-52 0 l32 -76 l-302 0 l0 -36 l532 0 l0 -100 l-206 -228 l-270 254 l0 -56 l240 -230 l-250 -250 l0 -54 l282 272 l294 -260 l0 58 l-264 234 l222 242 l0 118 l0 0 l0 0 Z" /><glyph glyph-name="" unicode="&#x76f4;" d="M840 110 l0 -111 l-652 0 l0 111 l652 0 l0 0 l0 0 ZM188 450 l0 112 l652 0 l0 -112 l-652 0 l0 0 l0 0 ZM188 298 l0 116 l652 0 l0 -116 l-652 0 l0 0 l0 0 ZM188 146 l0 116 l652 0 l0 -116 l-652 0 l0 0 l0 0 ZM536 786 l-48 0 l0 -60 l-400 0 l0 -36 l400 0 l0 -92 l-348 0 l0 -599 l-80 0 l0 -36 l904 0 l0 36 l-76 0 l0 599 l-352 0 l0 92 l408 0 l0 36 l-408 0 l0 60 l0 0 l0 0 Z" /><glyph glyph-name="" unicode="&#x7f6e;" d="M376 632 l-180 0 l0 80 l180 0 l0 -80 l0 0 l0 0 ZM646 712 l184 0 l0 -80 l-184 0 l0 80 l0 0 l0 0 ZM598 632 l-174 0 l0 80 l174 0 l0 -80 l0 0 l0 0 ZM224 108 l0 70 l576 0 l0 -70 l-576 0 l0 0 l0 0 ZM224 214 l0 68 l576 0 l0 -68 l-576 0 l0 0 l0 0 ZM224 318 l0 70 l576 0 l0 -70 l-576 0 l0 0 l0 0 ZM800 72 l0 -72 l-576 0 l0 72 l576 0 l0 0 l0 0 ZM80 0 l0 -35 l864 0 l0 35 l-96 0 l0 424 l-312 0 l0 68 l398 0 l0 36 l-398 0 l0 64 l342 0 l0 156 l-730 0 l0 -152 l340 0 l0 -68 l-400 0 l0 -36 l400 0 l0 -68 l-312 0 l0 -424 l-96 0 l0 0 l0 0 Z" /><glyph glyph-name="" unicode="&#x91cd;" d="M164 384 l0 100 l324 0 l0 -100 l-324 0 l0 0 l0 0 ZM536 384 l0 100 l328 0 l0 -100 l-328 0 l0 0 l0 0 ZM488 348 l0 -108 l-324 0 l0 108 l324 0 l0 0 l0 0 ZM864 348 l0 -108 l-328 0 l0 108 l328 0 l0 0 l0 0 ZM116 520 l0 -316 l372 0 l0 -80 l-380 0 l0 -36 l380 0 l0 -91 l-424 0 l0 -36 l900 0 l0 36 l-428 0 l0 91 l384 0 l0 36 l-384 0 l0 80 l376 0 l0 316 l-376 0 l0 80 l430 0 l0 36 l-430 0 l0 96 l384 8 l0 36 l-820 -20 l0 -36 l388 12 l0 -96 l-426 0 l0 -36 l426 0 l0 -80 l-372 0 l0 0 l0 0 Z" /><glyph glyph-name="" unicode="&#x6ce8;" d="M628 790 l-48 0 l40 -104 l48 0 l-40 104 l0 0 l0 0 ZM144 786 l-52 0 l104 -196 l52 0 l-104 196 l0 0 l0 0 ZM108 558 l-52 0 l100 -204 l52 0 l-100 204 l0 0 l0 0 ZM208 270 l-52 0 l-88 -323 l48 0 l92 323 l0 0 l0 0 ZM636 626 l308 0 l0 36 l-672 0 l0 -36 l316 0 l0 -262 l-292 0 l0 -36 l292 0 l0 -337 l-336 0 l0 -36 l708 0 l0 36 l-324 0 l0 337 l284 0 l0 36 l-284 0 l0 262 l0 0 l0 0 Z" /><glyph glyph-name="" unicode="&#x8d44;" d="M160 778 l-52 0 l80 -156 l52 0 l-80 156 l0 0 l0 0 ZM68 346 l52 0 l124 224 l-52 0 l-124 -224 l0 0 l0 0 ZM936 356 l0 50 l-260 172 l0 -50 l260 -172 l0 0 l0 0 ZM916 -57 l0 44 l-364 143 l0 -44 l364 -143 l0 0 l0 0 ZM656 666 l-48 0 l0 -98 l-308 -146 l0 -44 l356 168 l0 120 l0 0 l0 0 ZM112 -9 l0 -44 l420 151 l0 164 l-48 0 l0 -140 l-372 -131 l0 0 l0 0 ZM408 710 l472 0 l-58 -136 l50 0 l72 172 l-522 0 l20 40 l-50 0 l-100 -220 l48 0 l68 144 l0 0 l0 0 ZM888 338 l-744 0 l0 -256 l48 0 l0 220 l648 0 l0 -220 l48 0 l0 256 l0 0 l0 0 Z" /></font>
</defs>
</svg>
